HIERARCHY
ROOT root
{
	OFFSET	0	13.1	24.9
	CHANNELS 6  Xposition Yposition Zposition Xrotation Yrotation Zrotation
	JOINT spine_1
	{
		OFFSET	0	9.99999	0
		CHANNELS 3  Xrotation Yrotation Zrotation
		JOINT spine_2
		{
			OFFSET	0	112	-10
			CHANNELS 3  Xrotation Yrotation Zrotation
			JOINT spine_3
			{
				OFFSET	0	206.5	19.3
				CHANNELS 3  Xrotation Yrotation Zrotation
				JOINT spine_4
				{
					OFFSET	0	110.4	14.6
					CHANNELS 3  Xrotation Yrotation Zrotation
					JOINT neck_1
					{
						OFFSET	0	71.8	-50.3
						CHANNELS 3  Xrotation Yrotation Zrotation
						JOINT neck_2
						{
							OFFSET	0	86.2	-25.8
							CHANNELS 3  Xrotation Yrotation Zrotation
							JOINT head_ee
							{
								OFFSET	0	179.8	-8.7
								CHANNELS 3  Xrotation Yrotation Zrotation
								End Site
								{
									OFFSET	1	0	0
								}
							}
						}
					}
					JOINT left_clavicle
					{
						OFFSET	-43.2	22.4	-70.8
						CHANNELS 3  Xrotation Yrotation Zrotation
						JOINT left_shoulder
						{
							OFFSET	-93.9	-5.79999	48.7
							CHANNELS 3  Xrotation Yrotation Zrotation
							JOINT left_elbow
							{
								OFFSET	-291.4	-30.8	15.2
								CHANNELS 3  Xrotation Yrotation Zrotation
								JOINT left_lowarm_twist
								{
									OFFSET	-110.7	-3.89999	13.6
									CHANNELS 3  Xrotation Yrotation Zrotation
									JOINT left_hand
									{
										OFFSET	-110.7	-3.89999	13.6
										CHANNELS 3  Xrotation Yrotation Zrotation
										JOINT left_ee
										{
											OFFSET	-80.8	-5.10001	12.1
											CHANNELS 3  Xrotation Yrotation Zrotation
											End Site
											{
												OFFSET	1	0	0
											}
										}
									}
								}
							}
						}
					}
					JOINT right_clavicle
					{
						OFFSET	43.2	22.4	-70.8
						CHANNELS 3  Xrotation Yrotation Zrotation
						JOINT right_shoulder
						{
							OFFSET	93.9	-5.79999	48.7
							CHANNELS 3  Xrotation Yrotation Zrotation
							JOINT right_elbow
							{
								OFFSET	291.4	-30.8	15.2
								CHANNELS 3  Xrotation Yrotation Zrotation
								JOINT right_lowarm_twist
								{
									OFFSET	110.7	-3.89999	13.6
									CHANNELS 3  Xrotation Yrotation Zrotation
									JOINT right_hand
									{
										OFFSET	110.7	-3.89999	13.6
										CHANNELS 3  Xrotation Yrotation Zrotation
										JOINT right_ee
										{
											OFFSET	80.8	-5.10001	12.1
											CHANNELS 3  Xrotation Yrotation Zrotation
											End Site
											{
												OFFSET	1	0	0
											}
										}
									}
								}
							}
						}
					}
				}
			}
		}
	}
	JOINT left_hip
	{
		OFFSET	-82.8	-127.5	0.300001
		CHANNELS 3  Xrotation Yrotation Zrotation
		JOINT left_knee
		{
			OFFSET	-28.2	-396.7	2.2
			CHANNELS 3  Xrotation Yrotation Zrotation
			JOINT left_ankle
			{
				OFFSET	-11.7	-411.3	35.4
				CHANNELS 3  Xrotation Yrotation Zrotation
				JOINT left_toes
				{
					OFFSET	0	-60	-88.6
					CHANNELS 3  Xrotation Yrotation Zrotation
					JOINT left_foot_ee
					{
						OFFSET	-22.5	-16.5	-42.2
						CHANNELS 3  Xrotation Yrotation Zrotation
						End Site
						{
							OFFSET	1	0	0
						}
					}
				}
			}
		}
	}
	JOINT right_hip
	{
		OFFSET	82.8	-127.5	0.300001
		CHANNELS 3  Xrotation Yrotation Zrotation
		JOINT right_knee
		{
			OFFSET	28.2	-396.7	2.2
			CHANNELS 3  Xrotation Yrotation Zrotation
			JOINT right_ankle
			{
				OFFSET	11.7	-411.3	35.4
				CHANNELS 3  Xrotation Yrotation Zrotation
				JOINT right_toes
				{
					OFFSET	0	-60	-88.6
					CHANNELS 3  Xrotation Yrotation Zrotation
					JOINT right_foot_ee
					{
						OFFSET	22.5	-16.5	-42.2
						CHANNELS 3  Xrotation Yrotation Zrotation
						End Site
						{
							OFFSET	1	0	0
						}
					}
				}
			}
		}
	}
}
MOTION
Frames: 13
Frame Time: 0.02
1949.61 699.139 -1299.9 -0.196626 41.1186 0.419048 0.300453 0.10624 0.741842 0.300757 0.0588204 0.747098 0.301658 -0.0956074 0.743287 0.300888 0.0229773 0.749057 -1.21748 16.9495 0.0529846 -0.607504 30.4994 1.98149 -0.0 0.0 -0.0 1.7148 21.6982 4.95685 -5.12185 -22.1742 54.2722 5.75523 -70.6417 4.07978 1.22483 0.0415425 -0.150915 -0.777551 7.86218 -1.76794 -0.0 0.0 -0.0 11.2425 19.2921 -22.2533 -23.4659 15.6146 -67.3186 0.383072 10.745 -0.0360257 17.3833 -0.281565 2.1942 1.75502 -29.5097 -21.3908 0.0 0.0 0.0 -18.2143 4.96207 6.85792 -4.68593 0.164372 0.700166 40.9038 11.6368 -4.96965 -10.2677 0.0 0.0 -0.0 0.0 -0.0 29.4322 12.4743 -8.67291 -2.52208 -0.0955965 -0.375219 -3.25918 12.6002 -0.515045 11.876 -0.0 -0.0 0.0 0.0 0.0 
1929.88 698.339 -1311.89 0.455666 41.048 -0.214699 0.150754 0.0434531 0.838293 0.151145 -0.00997578 0.839359 0.151154 -0.184019 0.819001 0.150221 -0.0523686 0.837784 -1.17391 17.1737 -0.633902 -0.501708 31.44 1.25133 -0.0 0.0 -0.0 1.74443 20.9357 4.95228 -5.43408 -22.5307 54.7162 4.64227 -66.4758 3.04316 1.80128 0.0599742 -0.222236 -0.588795 7.05764 -0.889969 -0.0 0.0 -0.0 11.1625 20.0343 -22.0205 -22.5405 15.5634 -66.5529 0.48427 13.4901 -0.0572751 17.8537 -0.279872 2.25427 1.8708 -29.431 -22.0511 0.0 0.0 0.0 -19.1341 5.67618 7.40784 -5.70252 0.192432 0.853652 41.0085 11.665 -4.97898 -9.93704 0.0 0.0 -0.0 0.0 -0.0 30.0326 12.2506 -8.9792 -6.96644 -0.223511 -1.04512 -3.44357 13.3692 -0.547299 11.9893 -0.0 -0.0 0.0 0.0 0.0 
1912.65 698.031 -1329.17 0.668291 41.4851 -0.381989 0.21692 0.218237 0.867007 0.217324 0.162627 0.879136 0.220048 -0.0223418 0.893771 0.218953 0.119087 0.886084 -1.04469 17.2091 -1.31476 -0.311696 32.0174 0.483041 -0.0 0.0 -0.0 1.64941 21.1782 4.8306 -6.05652 -22.2945 55.7175 4.11762 -63.8644 2.56688 2.40588 0.0785333 -0.297233 -0.469704 7.53665 0.0882564 -0.0 0.0 -0.0 11.3351 19.5086 -22.4492 -21.1877 16.1088 -67.3822 0.490047 13.6451 -0.0586304 17.7672 -0.28022 2.24323 1.77448 -29.2995 -21.4558 0.0 0.0 0.0 -19.5699 5.72084 6.80674 -8.29678 0.251651 1.24733 41.2396 13.6549 -5.02264 -9.06041 0.0 0.0 -0.0 0.0 -0.0 29.8566 11.9787 -9.35405 -8.61753 -0.257733 -1.29617 -5.53489 12.8929 -0.880659 10.2503 -0.0 -0.0 0.0 0.0 0.0 
1890.17 697.701 -1342.25 0.773776 40.7515 -0.218296 0.23598 0.270657 0.950555 0.236458 0.209625 0.965849 0.240276 0.00609958 0.988315 0.23895 0.162101 0.97495 -0.0984042 16.741 -2.93146 0.821042 32.2908 -1.58809 -0.0 0.0 -0.0 1.43548 22.6712 4.62639 -7.65753 -23.0954 55.9282 3.80495 -62.0353 2.28837 3.3496 0.105916 -0.414668 -0.269007 6.76307 1.06654 -0.0 0.0 -0.0 11.7129 22.2214 -23.1018 -18.6979 15.2615 -68.3162 0.44354 12.3921 -0.0481533 18.0719 -0.278919 2.28212 1.9096 -29.6079 -22.3188 0.0 0.0 0.0 -19.8975 6.95585 6.78398 -9.15653 0.267336 1.37832 40.6756 15.0845 -4.99411 -7.83594 0.0 0.0 -0.0 0.0 -0.0 30.003 11.3532 -10.2275 -12.5781 -0.31023 -1.9015 -3.03497 9.56171 -0.470394 10.0563 -0.0 -0.0 0.0 0.0 0.0 
1872.98 704.584 -1363.95 0.748888 41.6202 -0.297888 0.0563921 0.275786 1.16803 0.0571286 0.200908 1.18321 0.0617182 -0.0509629 1.19906 0.0597388 0.139032 1.19206 0.512119 16.7395 -4.87614 1.70613 33.7477 -3.94362 -0.0 0.0 -0.0 0.545326 22.9581 3.41338 -7.63784 -20.2116 58.1541 3.49305 -59.961 2.01554 4.37593 0.133494 -0.542869 0.00401589 7.68578 3.22512 -0.0 0.0 -0.0 11.5936 19.7119 -23.0242 -16.1349 15.7549 -68.1842 0.422752 11.8281 -0.043792 17.3864 -0.281556 2.1946 1.98427 -29.1603 -22.661 0.0 0.0 0.0 -18.2888 6.42026 4.61414 -12.1874 0.306914 1.84165 41.3894 16.733 -5.08507 -6.69851 0.0 0.0 -0.0 0.0 -0.0 28.7353 12.0226 -10.0048 -13.5108 -0.316497 -2.04447 -0.382126 9.25269 -0.0587472 9.15105 -0.0 -0.0 0.0 0.0 0.0 
1847.46 709.122 -1382.55 0.734892 41.0194 -0.460597 0.182018 0.127844 1.22609 0.182853 0.0495713 1.23174 0.184284 -0.206538 1.21531 0.182222 -0.0120247 1.23268 0.971903 17.239 -5.87309 2.42461 35.3681 -5.20914 -0.0 0.0 -0.0 1.2298 23.4016 4.39343 -9.7648 -16.2118 58.4142 2.93058 -55.4286 1.53976 6.44818 0.182153 -0.803096 0.153776 6.30216 3.63555 -0.0 0.0 -0.0 11.6132 21.9605 -22.8963 -14.1901 14.5192 -70.0328 0.43144 12.0641 -0.0455904 17.347 -0.281676 2.18958 1.57626 -27.2153 -19.7749 0.0 0.0 0.0 -17.4229 8.05339 4.64275 -15.2037 0.321923 2.30414 41.758 21.3856 -5.22346 -5.17169 0.0 0.0 -0.0 0.0 -0.0 27.3021 12.4162 -9.86898 -16.3733 -0.32119 -2.48359 2.15095 5.38276 0.322265 9.99187 -0.0 -0.0 0.0 0.0 0.0 
1836.62 713.634 -1399.47 0.855218 41.0195 -0.524775 0.207381 0.0483566 1.52111 0.208667 -0.0485219 1.5211 0.207849 -0.361863 1.47824 0.20482 -0.12389 1.51682 1.01535 17.1078 -5.63784 2.42332 34.9392 -4.95748 -0.0 0.0 -0.0 0.276015 24.3719 3.1834 -11.4021 -18.4961 58.4559 2.71044 -53.3124 1.3608 6.40423 0.181219 -0.79756 0.385211 6.39428 5.18843 -0.0 0.0 -0.0 12.1582 24.737 -23.8804 -12.5556 15.7375 -70.6166 0.511101 14.208 -0.0636978 18.1362 -0.278618 2.29032 2.25356 -28.9335 -24.2252 0.0 0.0 0.0 -15.8485 7.83615 3.16212 -19.389 0.302408 2.94585 41.4216 19.8517 -5.15427 -4.6325 0.0 0.0 -0.0 0.0 -0.0 25.4831 11.3847 -10.2099 -15.9668 -0.32186 -2.42122 3.20903 8.79636 0.487247 9.07554 -0.0 -0.0 0.0 0.0 0.0 
1817.61 711.318 -1413.9 0.85023 40.6324 -0.87851 0.177854 0.059699 1.69997 0.179461 -0.0485798 1.70033 0.178622 -0.399829 1.65338 0.174832 -0.13373 1.69576 1.22882 17.4041 -5.60196 2.70688 35.4028 -4.97957 -0.0 0.0 -0.0 -0.0693743 24.3057 2.7129 -12.6377 -16.9766 59.3588 2.36057 -49.4566 1.08728 7.02375 0.193994 -0.875666 0.384398 7.23876 5.52178 -0.0 0.0 -0.0 11.9696 24.7184 -23.4507 -10.5974 15.7135 -71.2517 0.541502 15.0159 -0.0713672 17.9459 -0.279482 2.26604 2.00554 -28.4553 -22.6309 0.0 0.0 0.0 -14.4859 8.03206 2.05014 -24.6176 0.212322 3.74284 41.7118 21.0659 -5.21079 -3.80208 0.0 0.0 -0.0 0.0 -0.0 24.6561 11.492 -9.3403 -17.9094 -0.314664 -2.71917 5.22529 7.99245 0.785157 9.55023 -0.0 -0.0 0.0 0.0 0.0 
1795.33 714.498 -1436.28 1.91889 39.2076 -2.57455 0.208875 0.316402 2.02805 0.211144 0.186738 2.04406 0.218886 -0.23932 2.03857 0.213096 0.0855681 2.05078 1.48906 18.0135 -4.55527 2.95713 35.5919 -3.84877 -0.0 0.0 -0.0 -0.70966 23.5752 1.75844 -13.4086 -13.5331 61.4951 2.03526 -45.229 0.847875 6.42777 0.18172 -0.800525 0.562138 6.64143 6.44771 -0.0 0.0 -0.0 12.6749 24.523 -25.091 -8.98427 15.5638 -71.6766 0.537456 14.9088 -0.0703225 17.4764 -0.281269 2.2061 1.41113 -25.943 -18.4527 0.0 0.0 0.0 -8.52012 9.09318 0.157628 -38.2526 -0.359356 5.7521 41.906 22.4787 -5.26745 -1.57173 0.0 0.0 -0.0 0.0 -0.0 22.915 11.7926 -8.86081 -22.7572 -0.252711 -3.46023 11.1153 7.61792 1.6325 9.44624 -0.0 -0.0 0.0 0.0 0.0 
1777.93 713.064 -1451.15 2.15446 39.1476 -3.07532 0.200599 0.231057 2.03927 0.202907 0.100852 2.04983 0.20753 -0.325002 2.02642 0.201799 -0.000957947 2.05231 1.61026 18.2833 -3.72337 3.02887 35.3717 -2.92629 -0.0 0.0 -0.0 -0.870944 23.1646 1.48302 -15.1405 -10.9304 62.3619 1.80376 -41.7778 0.688438 6.0171 0.172807 -0.748823 0.726457 5.60296 7.11806 -0.0 0.0 -0.0 12.8742 24.7602 -25.526 -7.65172 15.6799 -70.9909 0.587534 16.2276 -0.0837637 17.7701 -0.280209 2.2436 1.40412 -24.5705 -18.0242 0.0 0.0 0.0 -6.00696 9.4669 -0.921784 -44.3407 -0.765755 6.59496 42.4273 23.037 -5.33091 -0.388145 0.0 0.0 -0.0 0.0 -0.0 22.1628 12.1218 -8.1021 -26.0942 -0.173743 -3.96616 16.7689 8.2507 2.4115 9.56616 -0.0 -0.0 0.0 0.0 0.0 
1762.46 711.693 -1459.33 2.31737 39.7544 -3.28337 0.20634 0.353029 2.09904 0.208765 0.218777 2.11724 0.218032 -0.2231 2.11679 0.211797 0.113929 2.12545 1.13445 18.224 -3.6753 2.47357 35.3186 -2.72297 -0.0 0.0 -0.0 -0.842475 22.7215 1.46276 -15.5737 -9.1466 63.6969 1.63843 -39.0607 0.58121 5.7214 0.16616 -0.711634 0.808545 5.38895 7.5762 -0.0 0.0 -0.0 13.2345 24.5433 -26.3849 -6.26174 15.7964 -70.7861 0.608227 16.7676 -0.08964 17.8446 -0.279909 2.25311 1.14382 -23.5173 -16.1447 0.0 0.0 0.0 -2.88432 9.85206 -2.35088 -50.3588 -1.25356 7.38196 42.0353 23.5445 -5.31136 0.492943 -0.0 -0.0 -0.0 0.0 -0.0 21.4857 12.4741 -7.62598 -28.1242 -0.11133 -4.27143 19.4119 8.15227 2.75515 9.31526 -0.0 -0.0 0.0 0.0 0.0 
1746.43 713.97 -1468.08 1.55078 39.999 -2.429 0.363035 0.478318 2.09389 0.365408 0.34414 2.12007 0.379327 -0.0948936 2.14571 0.372985 0.245093 2.13378 1.29009 18.529 -2.88738 2.60157 35.1925 -1.86601 -0.0 0.0 -0.0 -1.16694 22.6113 0.995946 -16.7858 -8.5297 64.7412 1.5293 -37.144 0.513862 5.48086 0.160612 -0.681408 0.860098 5.40304 7.92312 -0.0 0.0 -0.0 13.4125 24.4953 -26.8042 -4.41474 16.0029 -69.7976 0.638547 17.5532 -0.0985861 17.8528 -0.279876 2.25416 1.03398 -22.7258 -15.2366 0.0 0.0 0.0 0.689499 9.22517 -3.75703 -53.2121 -1.51327 7.73651 42.4831 23.9146 -5.36356 1.24041 -0.0 -0.0 -0.0 0.0 -0.0 20.822 12.6503 -7.43077 -28.4889 -0.0989723 -4.32604 22.3861 8.46223 3.13366 9.67892 -0.0 -0.0 0.0 0.0 0.0 
1731.97 720.261 -1471.76 0.76741 38.7495 -2.67385 0.511818 0.26964 2.27074 0.514678 0.124639 2.28329 0.520678 -0.337643 2.26164 0.513541 0.0236811 2.28657 -0.947237 17.8654 -2.58031 -0.0422561 34.1841 -0.870071 -0.0 0.0 -0.0 -1.20002 22.8906 0.990273 -18.4289 -5.90633 66.6337 1.41676 -35.0599 0.447536 5.93188 0.170911 -0.738101 0.754227 5.77578 7.3698 -0.0 0.0 -0.0 13.3947 24.497 -26.7627 -2.22337 16.5001 -69.1786 0.82295 22.1789 -0.161301 16.897 -0.282798 2.13211 0.236412 -21.8765 -10.1785 0.0 0.0 0.0 7.30774 10.9799 -7.52157 -55.0148 -1.6864 7.95379 41.0183 23.8097 -5.22629 0.496148 -0.0 -0.0 -0.0 0.0 -0.0 16.1533 14.6894 -5.8507 -20.2107 -0.293074 -3.07159 21.197 5.10454 2.94333 7.50483 -0.0 -0.0 0.0 0.0 0.0 
